<svg width="35" height="34" viewBox="0 0 35 34" fill="none" xmlns="http://www.w3.org/2000/svg">
<g clip-path="url(#clip0_14800_128)">
<path d="M13.2283 17C13.2283 18.0438 12.8129 19.0435 12.0752 19.7809L6.71443 25.1407C6.6244 25.2307 6.53279 25.316 6.43486 25.395C6.20109 25.5892 5.94679 25.7518 5.68144 25.8829C5.13178 26.1561 4.53157 26.2919 3.93294 26.2919C2.9268 26.2919 1.91908 25.9082 1.15145 25.1391C-0.383817 23.6042 -0.383817 21.1138 1.15145 19.5772L3.72918 17L1.15145 14.4212C-0.383817 12.8862 -0.383817 10.3958 1.15145 8.85928C2.37556 7.63541 4.21093 7.3859 5.68144 8.11706C5.94995 8.24972 6.20583 8.41395 6.44276 8.60977C6.53595 8.68873 6.62756 8.77085 6.71443 8.8577L6.93082 9.07405L12.0752 14.2175C12.8144 14.9565 13.2283 15.9577 13.2283 17Z" fill="#1F2937"/>
<path d="M13.2283 17C13.2283 18.0438 12.8129 19.0435 12.0752 19.7809L6.71443 25.1407C6.6244 25.2307 6.53279 25.316 6.43486 25.395C6.20109 25.5892 5.9468 25.7518 5.68144 25.8829C5.3071 25.6982 4.95803 25.4502 4.64687 25.1391C3.11161 23.6042 3.11161 21.1138 4.64687 19.5772L7.22461 17L4.64845 14.4212C3.11319 12.8862 3.11319 10.3958 4.64845 8.85928C4.95961 8.54818 5.30868 8.30183 5.68144 8.11707C5.94995 8.24972 6.20583 8.41395 6.44276 8.60977C6.53595 8.68873 6.62756 8.77085 6.71443 8.8577L6.93082 9.07405L12.0752 14.2175C12.8144 14.9565 13.2283 15.9577 13.2283 17Z" fill="#1F2937"/>
<path d="M35 16.9999C35 26.1134 27.5842 33.5277 18.469 33.5277H10.5794C8.50712 33.5277 6.80759 31.9248 6.65753 29.8893C6.64806 29.7929 6.6449 29.695 6.6449 29.594C6.6449 27.4226 8.40603 25.6602 10.5794 25.6602H18.4706C23.247 25.6602 27.1341 21.7754 27.1341 16.9984C27.1341 12.2229 23.247 8.33652 18.4706 8.33652H10.5794C8.40761 8.33652 6.6449 6.57573 6.6449 4.40276C6.6449 4.30328 6.64806 4.20379 6.65753 4.10746C6.80759 2.07504 8.50554 0.472168 10.5794 0.472168H18.4706C27.5858 0.472168 35 7.88645 35 16.9999Z" fill="#1F2937"/>
<path d="M6.93078 9.07732C6.7523 8.94151 6.58803 8.78359 6.44272 8.61304C6.53591 8.692 6.62752 8.77411 6.71439 8.86097L6.93078 9.07732Z" fill="#1F2937"/>
<path d="M6.71441 25.1408C6.62438 25.2308 6.53277 25.316 6.43484 25.395C6.5849 25.2166 6.75548 25.0555 6.9387 24.9165L6.71441 25.1408Z" fill="#1F2937"/>
<path d="M29.347 17C29.347 24.6165 23.1506 30.81 15.5343 30.81H8.93834C8.05067 30.81 7.24829 30.4594 6.65598 29.8894C6.6465 29.793 6.64334 29.6951 6.64334 29.5941C6.64334 27.4227 8.40448 25.6603 10.5779 25.6603H18.469C23.2454 25.6603 27.1325 21.7755 27.1325 16.9985C27.1325 12.223 23.2454 8.33662 18.469 8.33662H10.5794C8.40764 8.33662 6.64492 6.57582 6.64492 4.40286C6.64492 4.30337 6.64808 4.20389 6.65756 4.10756C7.24987 3.53747 8.05225 3.18689 8.93992 3.18689H15.5343C23.1506 3.19005 29.347 9.38362 29.347 17Z" fill="#1F2937"/>
</g>
<defs>
<clipPath id="clip0_14800_128">
<rect width="35" height="33.0555" fill="white" transform="translate(0 0.472168)"/>
</clipPath>
</defs>
</svg>
